<svg xmlns="http://www.w3.org/2000/svg" width="500.383" height="500.299" viewBox="0 0 500.383 500.299">
  <g id="Group_36469" data-name="Group 36469" transform="translate(7445.187 -4019.337)">
    <path id="Path_2072" data-name="Path 2072" d="M486.622,136.413,244.811,3,3,136.413H486.622Z" transform="translate(-7439.805 4024.675)" fill="#fff"/>
    <path id="Path_2073" data-name="Path 2073" d="M146.751,69.03H455.269V19H5V69.03H146.751Z" transform="translate(-7425.128 4142.088)" fill="#fff"/>
    <path id="Path_2074" data-name="Path 2074" d="M313.517,49H5V99.03H455.269V49H313.517Z" transform="translate(-7425.128 4362.237)" fill="#fff"/>
    <path id="Path_2075" data-name="Path 2075" d="M3,55v50.03H486.622V55H3Z" transform="translate(-7439.805 4406.268)" fill="#d3e0fb"/>
    <path id="Path_2076" data-name="Path 2076" d="M100.03,25H50V225.119h50.03Z" transform="translate(-7094.905 4186.118)" fill="#d3e0fb"/>
    <path id="Path_2077" data-name="Path 2077" d="M86.03,25H36V225.119H86.03Z" transform="translate(-7197.641 4186.118)" fill="#0092d6"/>
    <path id="Path_2078" data-name="Path 2078" d="M72.03,25H22V225.119H72.03Z" transform="translate(-7300.377 4186.118)" fill="#0092d6"/>
    <path id="Path_2079" data-name="Path 2079" d="M58.03,25H8V225.119H58.03Z" transform="translate(-7403.114 4186.118)" fill="#d3e0fb"/>
    <path id="Path_2080" data-name="Path 2080" d="M494,435.592h-8.338V393.9a8.339,8.339,0,0,0-8.338-8.338H460.644V202.119H477.32a8.339,8.339,0,0,0,8.338-8.338V152.09H494a8.338,8.338,0,0,0,4-15.676L256.189,3a8.505,8.505,0,0,0-8,0L6.373,136.414a8.338,8.338,0,0,0,4,15.676h8.338v41.692a8.339,8.339,0,0,0,8.338,8.338H43.729V385.562H27.052a8.339,8.339,0,0,0-8.338,8.338v41.692H10.375a8.339,8.339,0,0,0-8.338,8.338v50.03a8.338,8.338,0,0,0,8.338,8.338H494a8.339,8.339,0,0,0,8.338-8.338V443.93A8.339,8.339,0,0,0,494,435.592ZM252.186,19.844,461.644,135.413H42.728Zm-216.8,165.6V152.09H468.982v33.353Zm408.577,16.677V385.562H410.614V202.119Zm-50.03,0V385.562h-50.03V202.119Zm-66.706,0V385.562H293.878V202.119Zm-50.03,0V385.562h-50.03V202.119Zm-66.706,0V385.562H177.141V202.119Zm-50.03,0V385.562h-50.03V202.119Zm-66.706,0V385.562H60.405V202.119ZM35.39,402.239H468.982v33.353H35.39Zm450.269,83.383H18.714V452.269H485.659Z" transform="translate(-7447.181 4017.337)" fill="#193651"/>
  </g>
</svg>
