<svg id="desk_blue" xmlns="http://www.w3.org/2000/svg" width="38.418" height="38.418" viewBox="0 0 38.418 38.418">
  <circle id="Ellipse_17" data-name="Ellipse 17" cx="11.706" cy="11.706" r="11.706" transform="translate(15.007 15.007)" fill="#0092d6"/>
  <rect id="Rectangle_9" data-name="Rectangle 9" width="35.057" height="26.773" transform="translate(0.6 0.6)" fill="#d3e0fb"/>
  <path id="Path_163" data-name="Path 163" d="M35.657,27.973H.6a.567.567,0,0,1-.6-.6V.6A.567.567,0,0,1,.6,0H35.657a.567.567,0,0,1,.6.6V27.373A.646.646,0,0,1,35.657,27.973ZM1.2,26.773H35.057V1.2H1.2Z" fill="#193651"/>
  <g id="Group_54" data-name="Group 54" transform="translate(3.001 3.001)">
    <rect id="Rectangle_10" data-name="Rectangle 10" width="30.255" height="21.971" fill="#fff"/>
    <circle id="Ellipse_18" data-name="Ellipse 18" cx="9.365" cy="9.365" r="9.365" transform="translate(14.347 14.347)" fill="#fff"/>
  </g>
  <path id="Path_164" data-name="Path 164" d="M229.731,239.7a9.965,9.965,0,1,1,9.965-9.965A9.979,9.979,0,0,1,229.731,239.7Zm0-18.729a8.764,8.764,0,1,0,8.764,8.764A8.774,8.774,0,0,0,229.731,220.967Z" transform="translate(-203.018 -203.018)" fill="#193651"/>
  <path id="Path_165" data-name="Path 165" d="M263.931,256.788a7.16,7.16,0,0,0-7.143,7.143h7.143Z" transform="translate(-237.219 -237.219)" fill="#2ea0da"/>
  <path id="Path_166" data-name="Path 166" d="M350.523,350.523v7.143h0a7.161,7.161,0,0,0,7.143-7.143Z" transform="translate(-323.81 -323.81)" fill="#0092d6"/>
  <path id="Path_167" data-name="Path 167" d="M263.931,350.523h-7.143a7.16,7.16,0,0,0,7.143,7.143v-7.143Z" transform="translate(-237.219 -323.81)" fill="#fff"/>
  <path id="Path_168" data-name="Path 168" d="M350.523,256.788h0v7.143h0l5.042-5.042A6.926,6.926,0,0,0,350.523,256.788Z" transform="translate(-323.81 -237.219)" fill="#fff"/>
  <path id="Path_169" data-name="Path 169" d="M355.565,284.357l-5.042,5.042h7.143A6.926,6.926,0,0,0,355.565,284.357Z" transform="translate(-323.81 -262.687)" fill="#fff"/>
  <path id="Path_170" data-name="Path 170" d="M105.522,86.527a.545.545,0,0,1-.42-.18l-4.622-4.562-3.362,3.362a.594.594,0,0,1-.84-.84l3.782-3.782a.58.58,0,0,1,.84,0l4.562,4.562,3.422-3.362a.594.594,0,1,1,.84.84l-3.782,3.782A.649.649,0,0,1,105.522,86.527Z" transform="translate(-88.774 -74.221)" fill="#193651"/>
  <circle id="Ellipse_19" data-name="Ellipse 19" cx="1.801" cy="1.801" r="1.801" transform="translate(14.947 9.905)" fill="#fff"/>
  <path id="Path_171" data-name="Path 171" d="M190.659,126.894a2.4,2.4,0,1,1,2.4-2.4A2.408,2.408,0,0,1,190.659,126.894Zm0-3.6a1.2,1.2,0,1,0,1.2,1.2A1.2,1.2,0,0,0,190.659,123.293Z" transform="translate(-173.911 -112.788)" fill="#193651"/>
  <circle id="Ellipse_20" data-name="Ellipse 20" cx="1.801" cy="1.801" r="1.801" transform="translate(20.05 4.802)" fill="#fff"/>
  <path id="Path_172" data-name="Path 172" d="M257.613,60.728a2.4,2.4,0,1,1,2.4-2.4A2.408,2.408,0,0,1,257.613,60.728Zm0-3.662a1.2,1.2,0,1,0,1.2,1.2A1.2,1.2,0,0,0,257.613,57.067Z" transform="translate(-235.763 -51.664)" fill="#193651"/>
  <circle id="Ellipse_21" data-name="Ellipse 21" cx="1.801" cy="1.801" r="1.801" transform="translate(4.802 9.905)" fill="#fff"/>
  <path id="Path_173" data-name="Path 173" d="M57.539,126.894a2.4,2.4,0,1,1,2.4-2.4A2.408,2.408,0,0,1,57.539,126.894Zm0-3.6a1.2,1.2,0,1,0,1.2,1.2A1.2,1.2,0,0,0,57.539,123.293Z" transform="translate(-50.936 -112.788)" fill="#193651"/>
  <circle id="Ellipse_22" data-name="Ellipse 22" cx="1.801" cy="1.801" r="1.801" transform="translate(9.905 4.802)" fill="#fff"/>
  <path id="Path_174" data-name="Path 174" d="M124.493,60.728a2.4,2.4,0,1,1,2.4-2.4A2.408,2.408,0,0,1,124.493,60.728Zm0-3.662a1.2,1.2,0,1,0,1.2,1.2A1.2,1.2,0,0,0,124.493,57.067Z" transform="translate(-112.788 -51.664)" fill="#193651"/>
  <rect id="Rectangle_11" data-name="Rectangle 11" width="4.322" height="1.201" transform="translate(27.193 6.003)" fill="#193651"/>
  <rect id="Rectangle_12" data-name="Rectangle 12" width="4.322" height="1.201" transform="translate(27.193 8.764)" fill="#193651"/>
  <rect id="Rectangle_13" data-name="Rectangle 13" width="4.322" height="1.201" transform="translate(27.193 11.526)" fill="#193651"/>
  <rect id="Rectangle_14" data-name="Rectangle 14" width="8.104" height="1.201" transform="translate(5.163 16.148)" fill="#193651"/>
  <g id="Group_55" data-name="Group 55" transform="translate(5.163 19.149)">
    <rect id="Rectangle_15" data-name="Rectangle 15" width="8.104" height="1.201" fill="#193651"/>
    <rect id="Rectangle_16" data-name="Rectangle 16" width="1.201" height="1.201" transform="translate(0 3.061)" fill="#193651"/>
    <rect id="Rectangle_17" data-name="Rectangle 17" width="1.201" height="1.201" transform="translate(3.422 3.061)" fill="#193651"/>
    <rect id="Rectangle_18" data-name="Rectangle 18" width="1.201" height="1.201" transform="translate(6.903 3.061)" fill="#193651"/>
  </g>
</svg>
