<svg xmlns="http://www.w3.org/2000/svg" width="32.854" height="34.283" viewBox="0 0 32.854 34.283">
  <g id="manager_blue" transform="translate(-30 -20)">
    <ellipse id="Ellipse_16" data-name="Ellipse 16" cx="2.243" cy="1.795" rx="2.243" ry="1.795" transform="translate(57.816 21.053)" fill="#0092d6"/>
    <path id="Path_137" data-name="Path 137" d="M51.428,50A1.428,1.428,0,1,1,50,51.428,1.428,1.428,0,0,1,51.428,50Z" transform="translate(-18.572 -27.857)" fill="#0092d6"/>
    <path id="Path_138" data-name="Path 138" d="M84.048,402.938H78.89v-1.826a3.333,3.333,0,0,1,3.333-3.333h.555a3.333,3.333,0,0,1,3.333,3.333v1.826Z" transform="translate(-45.398 -350.798)" fill="#d3e0fb"/>
    <path id="Path_139" data-name="Path 139" d="M360.953,402.938H358.89v-1.826a3.333,3.333,0,0,1,3.333-3.333h.555a3.333,3.333,0,0,1,3.333,3.333v1.826h-5.158Z" transform="translate(-305.4 -350.798)" fill="#d3e0fb"/>
    <path id="Path_140" data-name="Path 140" d="M180,380.632v-3.865a4.547,4.547,0,0,1,4.547-4.547h3.682a4.548,4.548,0,0,1,4.547,4.547v3.865Z" transform="translate(-139.287 -327.064)" fill="#0092d6"/>
    <g id="Group_53" data-name="Group 53" transform="translate(35.04 37.856)">
      <path id="Path_141" data-name="Path 141" d="M382.612,340a2.063,2.063,0,1,1-2.063,2.063A2.063,2.063,0,0,1,382.612,340Z" transform="translate(-360.551 -335)" fill="#d3e0fb"/>
      <path id="Path_142" data-name="Path 142" d="M102.623,340a2.063,2.063,0,1,1-2.063,2.063A2.063,2.063,0,0,1,102.623,340Z" transform="translate(-100.56 -335)" fill="#d3e0fb"/>
      <path id="Path_143" data-name="Path 143" d="M221.981,270a3.65,3.65,0,1,1-3.651,3.65A3.651,3.651,0,0,1,221.981,270Z" transform="translate(-209.919 -270)" fill="#d3e0fb"/>
    </g>
    <path id="Path_144" data-name="Path 144" d="M460.714,170a.714.714,0,1,1-.714.714A.714.714,0,0,1,460.714,170Z" transform="translate(-399.288 -139.287)" fill="#193651"/>
    <path id="Path_145" data-name="Path 145" d="M460.714,330a.714.714,0,1,1-.714.714A.714.714,0,0,1,460.714,330Z" transform="translate(-399.288 -287.859)" fill="#193651"/>
    <path id="Path_146" data-name="Path 146" d="M340.714,330a.714.714,0,1,1-.714.714A.714.714,0,0,1,340.714,330Z" transform="translate(-287.859 -287.859)" fill="#193651"/>
    <path id="Path_147" data-name="Path 147" d="M270.714,190a.714.714,0,1,1-.714.714A.714.714,0,0,1,270.714,190Z" transform="translate(-222.859 -157.858)" fill="#193651"/>
    <path id="Path_148" data-name="Path 148" d="M210.714,220a.714.714,0,1,1-.714.714A.714.714,0,0,1,210.714,220Z" transform="translate(-167.144 -185.715)" fill="#193651"/>
    <path id="Path_149" data-name="Path 149" d="M50.714,170a.714.714,0,1,1-.714.714A.714.714,0,0,1,50.714,170Z" transform="translate(-18.572 -139.287)" fill="#193651"/>
    <path id="Path_150" data-name="Path 150" d="M50.714,320a.714.714,0,1,1-.714.714A.714.714,0,0,1,50.714,320Z" transform="translate(-18.572 -278.573)" fill="#193651"/>
    <path id="Path_151" data-name="Path 151" d="M30.714,450a.714.714,0,1,1-.714.714A.714.714,0,0,1,30.714,450Z" transform="translate(0 -399.288)" fill="#193651"/>
    <path id="Path_152" data-name="Path 152" d="M183.491,368.806a.714.714,0,0,1-.714-.714v-.611a3.838,3.838,0,0,0-3.833-3.833h-3.682a3.838,3.838,0,0,0-3.833,3.833v.611a.714.714,0,0,1-1.428,0v-.611a5.268,5.268,0,0,1,5.262-5.262h3.682a5.268,5.268,0,0,1,5.262,5.262v.611a.714.714,0,0,1-.714.714Z" transform="translate(-130.001 -317.777)" fill="#193651"/>
    <path id="Path_153" data-name="Path 153" d="M183.491,462.857H170.714a.714.714,0,0,1-.714-.714v-1.428a.714.714,0,1,1,1.428,0v.714h11.348v-.714a.714.714,0,1,1,1.428,0v1.428A.714.714,0,0,1,183.491,462.857Z" transform="translate(-130.001 -408.574)" fill="#193651"/>
    <path id="Path_154" data-name="Path 154" d="M356.826,394.367H349.6a.714.714,0,0,1-.714-.714v-1.826a4.052,4.052,0,0,1,4.047-4.047h.555a4.052,4.052,0,0,1,4.048,4.047v1.826A.714.714,0,0,1,356.826,394.367Zm-6.507-1.428h5.793v-1.111a2.622,2.622,0,0,0-2.619-2.618h-.555a2.622,2.622,0,0,0-2.619,2.618v1.111Z" transform="translate(-296.114 -341.512)" fill="#193651"/>
    <path id="Path_155" data-name="Path 155" d="M373.327,335.554a2.778,2.778,0,1,1,2.778-2.778A2.781,2.781,0,0,1,373.327,335.554Zm0-4.127a1.349,1.349,0,1,0,1.349,1.349A1.351,1.351,0,0,0,373.327,331.428Z" transform="translate(-316.226 -287.858)" fill="#193651"/>
    <path id="Path_156" data-name="Path 156" d="M76.826,394.367H69.6a.714.714,0,0,1-.714-.714v-1.826a4.052,4.052,0,0,1,4.048-4.047h.555a4.052,4.052,0,0,1,4.048,4.047v1.826A.714.714,0,0,1,76.826,394.367Zm-6.507-1.428h5.793v-1.111a2.622,2.622,0,0,0-2.619-2.618h-.555a2.622,2.622,0,0,0-2.619,2.618Z" transform="translate(-36.112 -341.512)" fill="#193651"/>
    <path id="Path_157" data-name="Path 157" d="M93.337,335.554a2.778,2.778,0,1,1,2.778-2.778A2.78,2.78,0,0,1,93.337,335.554Zm0-4.127a1.349,1.349,0,1,0,1.349,1.349A1.35,1.35,0,0,0,93.337,331.428Z" transform="translate(-56.235 -287.858)" fill="#193651"/>
    <path id="Path_158" data-name="Path 158" d="M212.7,268.729a4.365,4.365,0,1,1,4.365-4.365A4.37,4.37,0,0,1,212.7,268.729Zm0-7.3a2.936,2.936,0,1,0,2.936,2.936A2.94,2.94,0,0,0,212.7,261.428Z" transform="translate(-165.593 -222.859)" fill="#193651"/>
    <path id="Path_159" data-name="Path 159" d="M43.43,40.571a.714.714,0,0,1-.668-.46,12.245,12.245,0,0,1-.554-1.9l-3.68-.551a.714.714,0,0,1-.609-.706V34.776a.714.714,0,0,1,.608-.706l3.681-.555a12.28,12.28,0,0,1,.377-1.409l-2.912-2.32a.714.714,0,0,1-.173-.917l1.09-1.88a.714.714,0,0,1,.879-.307l3.466,1.361a12.3,12.3,0,0,1,1.028-1.028L44.6,23.549a.714.714,0,0,1,.307-.879l1.88-1.089a.714.714,0,0,1,.917.173l2.32,2.911a12.222,12.222,0,0,1,1.409-.377l.555-3.681A.714.714,0,0,1,52.7,20h2.174a.714.714,0,0,1,.706.608l.551,3.68a12.228,12.228,0,0,1,1.409.377l2.32-2.911a.714.714,0,0,1,.916-.173l1.884,1.089a.714.714,0,0,1,.307.88L61.6,27.015a12.128,12.128,0,0,1,1.031,1.029L66.1,26.683a.714.714,0,0,1,.88.308l1.086,1.88a.714.714,0,0,1-.173.916L64.979,32.1a11.722,11.722,0,0,1,.377,1.41l3.679.554a.714.714,0,0,1,.608.706v2.175a.714.714,0,0,1-.609.706l-3.678.55a11.694,11.694,0,0,1-.557,1.907.714.714,0,0,1-1.332-.516,10.245,10.245,0,0,0,.57-2.131.714.714,0,0,1,.6-.6l3.577-.535V35.39l-3.578-.539a.714.714,0,0,1-.6-.6,10.269,10.269,0,0,0-.57-2.131.714.714,0,0,1,.221-.816l2.829-2.254-.471-.815L62.678,29.56a.714.714,0,0,1-.815-.214A10.669,10.669,0,0,0,60.3,27.785a.714.714,0,0,1-.216-.817l1.327-3.37-.819-.473-2.254,2.829a.714.714,0,0,1-.813.222,10.78,10.78,0,0,0-2.138-.572.714.714,0,0,1-.594-.6l-.536-3.577h-.944l-.54,3.578a.714.714,0,0,1-.593.6,10.776,10.776,0,0,0-2.138.572.714.714,0,0,1-.813-.222l-2.254-2.829-.816.473,1.323,3.371a.714.714,0,0,1-.214.815A10.846,10.846,0,0,0,45.7,29.347a.714.714,0,0,1-.815.214l-3.37-1.323-.473.816,2.829,2.254a.714.714,0,0,1,.222.813,10.824,10.824,0,0,0-.572,2.138.714.714,0,0,1-.6.593l-3.578.539v.945l3.577.535a.714.714,0,0,1,.6.594A10.8,10.8,0,0,0,44.1,39.6a.714.714,0,0,1-.667.969Z" transform="translate(-7.354)" fill="#193651"/>
    <path id="Path_160" data-name="Path 160" d="M165,138.571a.714.714,0,0,1-.714-.714,6.428,6.428,0,1,0-12.856,0,.714.714,0,1,1-1.428,0,7.856,7.856,0,0,1,15.713,0A.714.714,0,0,1,165,138.571Z" transform="translate(-111.429 -102.144)" fill="#193651"/>
    <path id="Path_161" data-name="Path 161" d="M42.143,44.285a2.143,2.143,0,1,1,2.143-2.143A2.145,2.145,0,0,1,42.143,44.285Zm0-2.857a.714.714,0,1,0,.714.714A.715.715,0,0,0,42.143,41.428Z" transform="translate(-9.286 -18.572)" fill="#193651"/>
    <path id="Path_162" data-name="Path 162" d="M412.857,25.714a2.857,2.857,0,1,1,2.857-2.857A2.86,2.86,0,0,1,412.857,25.714Zm0-4.285a1.428,1.428,0,1,0,1.428,1.428A1.43,1.43,0,0,0,412.857,21.428Z" transform="translate(-352.859 0)" fill="#193651"/>
  </g>
</svg>
