<svg xmlns="http://www.w3.org/2000/svg" width="351.644" height="351.644" viewBox="0 0 351.644 351.644">
  <g id="Group_36467" data-name="Group 36467" transform="translate(6627.822 -4084.608)">
    <path id="Path_2085" data-name="Path 2085" d="M21,56.015h0V107.06h1.18A187.685,187.685,0,0,1,96.1,122.232l4.3,1.843V39l-13.51,5.065A187.675,187.675,0,0,1,21,56.015Z" transform="translate(-6535.389 4261.132)" fill="#cfcfcf"/>
    <path id="Path_2086" data-name="Path 2086" d="M28.343,42A11.34,11.34,0,0,0,17,53.343V81.7A11.34,11.34,0,0,0,28.343,93.045H39.687V42Z" transform="translate(-6554.075 4275.147)" fill="#d3e0fb"/>
    <path id="Path_2087" data-name="Path 2087" d="M44.848,44.065C39.965,45.9,35.008,47.5,30,48.914V113.86a187.863,187.863,0,0,1,24.059,8.377l4.3,1.838V39Z" transform="translate(-6493.344 4261.132)" fill="#d3e0fb"/>
    <path id="Path_2088" data-name="Path 2088" d="M41.687,51H19V96.373H41.687A93.479,93.479,0,0,1,41.687,51Z" transform="translate(-6544.732 4317.192)" fill="#d3e0fb"/>
    <circle id="Ellipse_205" data-name="Ellipse 205" cx="22.5" cy="22.5" r="22.5" transform="translate(-6605 4328.43)" fill="#0092d6"/>
    <path id="Path_2089" data-name="Path 2089" d="M2,91.7v17.015H81.4V91.7A39.7,39.7,0,0,0,41.7,52h0A39.7,39.7,0,0,0,2,91.7Z" transform="translate(-6624.15 4321.864)" fill="#0092d6"/>
    <path id="Path_2090" data-name="Path 2090" d="M220.837,98.419,184.7,114.583l23.226,32.068-39.39-4.118,4.112,39.39L140.583,158.7l-16.164,36.14L108.254,158.7,76.187,181.923l4.118-39.39-39.39,4.112L64.14,114.583,28,98.419,64.14,82.254,40.914,50.187,80.3,54.3l-4.112-39.39L108.254,38.14,124.419,2l16.164,36.14L172.65,14.914,168.533,54.3l39.39-4.112L184.7,82.254Z" transform="translate(-6502.687 4088.28)" fill="#0092d6"/>
    <ellipse id="Ellipse_206" data-name="Ellipse 206" cx="11" cy="11.5" rx="11" ry="11.5" transform="translate(-6412 4152.43)" fill="#d3e0fb"/>
    <ellipse id="Ellipse_207" data-name="Ellipse 207" cx="11.5" cy="11" rx="11.5" ry="11" transform="translate(-6367 4198.43)" fill="#d3e0fb"/>
    <path id="Path_2101" data-name="Path 2101" d="M45,0A45,45,0,1,1,0,45,45,45,0,0,1,45,0Z" transform="translate(-6616 4096.43)" fill="#d3e0fb"/>
    <path id="Path_2091" data-name="Path 2091" d="M104.09,53.045A51.045,51.045,0,1,0,53.045,104.09,51.1,51.1,0,0,0,104.09,53.045Zm-90.747,0a39.7,39.7,0,1,1,39.7,39.7A39.749,39.749,0,0,1,13.343,53.045Z" transform="translate(-6624.15 4088.28)" fill="#193651"/>
    <path id="Path_2093" data-name="Path 2093" d="M6.672,156.434h79.4a5.67,5.67,0,0,0,5.672-5.672V133.747A45.4,45.4,0,0,0,65.118,92.474a28.359,28.359,0,1,0-37.49,0A45.4,45.4,0,0,0,1,133.747v17.015A5.67,5.67,0,0,0,6.672,156.434ZM29.358,71.358A17.015,17.015,0,1,1,46.373,88.373,17.036,17.036,0,0,1,29.358,71.358ZM12.343,133.747a34.03,34.03,0,0,1,68.06,0V145.09H12.343Z" transform="translate(-6628.822 4279.819)" fill="#193651"/>
    <rect id="Rectangle_16969" data-name="Rectangle 16969" width="88.592" height="11.343" transform="translate(-6410.821 4220.24) rotate(-50.193)" fill="#193651"/>
    <path id="Path_2094" data-name="Path 2094" d="M72.03,29.015A17.015,17.015,0,1,0,55.015,46.03,17.036,17.036,0,0,0,72.03,29.015Zm-22.687,0a5.672,5.672,0,1,1,5.672,5.672A5.677,5.677,0,0,1,49.343,29.015Z" transform="translate(-6455.97 4134.997)" fill="#193651"/>
    <path id="Path_2095" data-name="Path 2095" d="M63.015,20A17.015,17.015,0,1,0,80.03,37.015,17.036,17.036,0,0,0,63.015,20Zm0,22.687a5.672,5.672,0,1,1,5.672-5.672A5.677,5.677,0,0,1,63.015,42.687Z" transform="translate(-6418.597 4172.37)" fill="#193651"/>
    <path id="Path_2096" data-name="Path 2096" d="M227.823,97.912,198.058,84.6l19.131-26.407a5.667,5.667,0,0,0-5.178-8.967l-32.436,3.386,3.386-32.436a5.671,5.671,0,0,0-8.967-5.184L147.58,34.123,134.268,4.352a5.674,5.674,0,0,0-10.356.006L110.6,34.123,84.193,14.992a5.671,5.671,0,0,0-8.967,5.184l3.38,32.431L46.176,49.215A5.667,5.667,0,0,0,41,58.182L60.123,84.595,30.358,97.906a5.676,5.676,0,0,0,0,10.362L60.123,121.58,40.992,147.987a5.667,5.667,0,0,0,5.178,8.967l32.436-3.392L75.221,186a5.671,5.671,0,0,0,8.967,5.184L110.6,172.046l13.311,29.771a5.67,5.67,0,0,0,10.356.006l13.311-29.765,26.407,19.131A5.671,5.671,0,0,0,182.954,186l-3.38-32.431L212,156.965a5.735,5.735,0,0,0,5.5-2.8,5.671,5.671,0,0,0-.323-6.165L198.058,121.58l29.765-13.311a5.672,5.672,0,0,0,0-10.356Zm-40.768,16.164a5.669,5.669,0,0,0-2.28,8.5l15.767,21.779-26.753-2.8a5.672,5.672,0,0,0-6.228,6.233l2.79,26.753-21.779-15.779a5.673,5.673,0,0,0-8.508,2.28L129.09,185.613,118.1,161.049a5.675,5.675,0,0,0-8.508-2.28L87.817,174.548l2.79-26.759a5.658,5.658,0,0,0-1.628-4.6,5.746,5.746,0,0,0-4.6-1.633l-26.753,2.8L73.4,122.584a5.673,5.673,0,0,0-2.28-8.508L46.562,103.09,71.126,92.1a5.669,5.669,0,0,0,2.28-8.5L57.638,61.823l26.753,2.8a5.765,5.765,0,0,0,4.6-1.633,5.658,5.658,0,0,0,1.628-4.6l-2.8-26.759L109.6,47.406a5.666,5.666,0,0,0,8.5-2.28L129.09,20.567l10.986,24.564a5.673,5.673,0,0,0,8.508,2.28l21.779-15.779-2.79,26.759a5.658,5.658,0,0,0,1.628,4.6,5.764,5.764,0,0,0,4.6,1.633l26.759-2.8L184.786,83.6a5.673,5.673,0,0,0,2.28,8.508l24.553,10.98Z" transform="translate(-6507.358 4083.608)" fill="#193651"/>
    <rect id="Rectangle_16970" data-name="Rectangle 16970" width="22.687" height="11.343" transform="translate(-6413.274 4334.162)" fill="#193651"/>
    <rect id="Rectangle_16971" data-name="Rectangle 16971" width="22.687" height="11.343" transform="translate(-6421.986 4312.163) rotate(-45)" fill="#193651"/>
    <rect id="Rectangle_16972" data-name="Rectangle 16972" width="11.343" height="22.687" transform="translate(-6421.984 4367.504) rotate(-45)" fill="#193651"/>
    <path id="Path_2097" data-name="Path 2097" d="M25.7,27.261A146.57,146.57,0,0,1,81.5,16.343c3.653,0,7.328.13,10.929.4l.828-11.315C89.38,5.142,85.421,5,81.5,5A157.978,157.978,0,0,0,21.4,16.763Z" transform="translate(-6533.497 4102.295)" fill="#193651"/>
    <path id="Path_2098" data-name="Path 2098" d="M20.51,20.555a159.283,159.283,0,0,0-7.47,123.518l10.691-3.783A147.961,147.961,0,0,1,30.668,25.6Z" transform="translate(-6614.807 4174.963)" fill="#193651"/>
    <path id="Path_2099" data-name="Path 2099" d="M28.292,186.5l-2.513,11.06A159.411,159.411,0,0,0,61.063,201.5c87.565,0,158.807-71.242,158.807-158.807,0-3.936-.142-7.895-.431-11.763l-11.309.834c.267,3.6.4,7.265.4,10.929,0,81.309-66.149,147.464-147.464,147.464A148.371,148.371,0,0,1,28.292,186.5Z" transform="translate(-6513.063 4223.413)" fill="#193651"/>
    <path id="Path_2100" data-name="Path 2100" d="M126.989,39.008a5.7,5.7,0,0,0-5.224-.652l-13.51,5.065a181.267,181.267,0,0,1-63.9,11.593H33.015A17.036,17.036,0,0,0,16,72.029v28.358a16.992,16.992,0,0,0,11.343,15.971V157.1a5.67,5.67,0,0,0,5.672,5.672H55.7a5.673,5.673,0,0,0,5.5-7.044,88.494,88.494,0,0,1-1.072-37.694,180.933,180.933,0,0,1,57.1,14.077l4.3,1.843a5.623,5.623,0,0,0,2.229.459,5.666,5.666,0,0,0,5.672-5.672V43.671A5.671,5.671,0,0,0,126.989,39.008ZM50.03,66.272a192.539,192.539,0,0,0,45.373-6.8v53.144A192.085,192.085,0,0,0,50.03,106.1ZM27.343,72.029a5.677,5.677,0,0,1,5.672-5.672h5.672v39.7H33.015a5.677,5.677,0,0,1-5.672-5.672Zm21.371,79.4H38.687V117.4h6.851c1.095,0,2.184.062,3.278.079A99.482,99.482,0,0,0,48.714,151.432Zm69.376-31.245c-3.743-1.52-7.532-2.87-11.343-4.146V55.984c1.838-.63,3.675-1.253,5.5-1.934l5.842-2.195Z" transform="translate(-6558.747 4256.461)" fill="#193651"/>
    <g id="_825651271582779208" data-name="825651271582779208" transform="translate(-6659.204 4119.192)">
      <path id="Path_2102" data-name="Path 2102" d="M101.1,10.154a.991.991,0,0,0-.732-.286H94.93a11.018,11.018,0,0,0-2.037-4.584h7.416a.978.978,0,0,0,1.018-1.018V1.019A.979.979,0,0,0,100.308,0H73.824a.98.98,0,0,0-1.018,1.018V5.252a1.033,1.033,0,0,0,1.018,1.018H78.44q6.716,0,8.531,3.6H73.824a.98.98,0,0,0-1.018,1.018v3.247a.98.98,0,0,0,1.018,1.018H87.417a6.22,6.22,0,0,1-3.263,3.979A14.365,14.365,0,0,1,77.39,20.5H73.824a1.033,1.033,0,0,0-1.018,1.018v4.043a.952.952,0,0,0,.286.7Q79.2,32.755,88.945,44.437a.939.939,0,0,0,.8.382h6.207a.923.923,0,0,0,.923-.573.87.87,0,0,0-.127-1.082Q87.45,31.768,82.133,26.1a16.144,16.144,0,0,0,8.786-3.5,11.9,11.9,0,0,0,4.106-7.449h5.348a.981.981,0,0,0,1.019-1.018V10.887A.991.991,0,0,0,101.1,10.154Z" fill="#193651"/>
    </g>
  </g>
</svg>
