<svg xmlns="http://www.w3.org/2000/svg" width="31.996" height="32" viewBox="0 0 31.996 32">
  <g id="reports_blue" transform="translate(-2.009 -2)">
    <path id="Path_105" data-name="Path 105" d="M43.267,8.867v24A1.07,1.07,0,0,1,42.2,33.933H24.067A1.07,1.07,0,0,1,23,32.867V4.067A1.07,1.07,0,0,1,24.067,3H37.4V7.8a1.07,1.07,0,0,0,1.067,1.067Z" transform="translate(-9.796 -0.467)" fill="#fff"/>
    <path id="Path_106" data-name="Path 106" d="M58.2,14V38a1.07,1.07,0,0,1-1.067,1.067H55A1.07,1.07,0,0,0,56.067,38V14Z" transform="translate(-24.729 -5.6)" fill="#d3e0fb"/>
    <path id="Path_107" data-name="Path 107" d="M55.867,8.867h-4.8A1.07,1.07,0,0,1,50,7.8V3Z" transform="translate(-22.396 -0.467)" fill="#0092d6"/>
    <path id="Path_120" data-name="Path 120" d="M4.174,0A4.174,4.174,0,1,1,0,4.174,4.174,4.174,0,0,1,4.174,0Z" transform="translate(22.881 22.868)" fill="#fff"/>
    <path id="Path_108" data-name="Path 108" d="M37.667,18.667H27V8A10.663,10.663,0,0,1,37.667,18.667Z" transform="translate(-11.662 -2.8)" fill="#d3e0fb"/>
    <path id="Path_110" data-name="Path 110" d="M37.665,18.667H35.531A10.667,10.667,0,0,0,27,8.213L27,8A10.663,10.663,0,0,1,37.665,18.667Z" transform="translate(-11.661 -2.8)" fill="#d3e0fb"/>
    <path id="Path_111" data-name="Path 111" d="M16.4,32H27.068A10.667,10.667,0,0,1,8.86,39.541Z" transform="translate(-3.197 -14)" fill="#d3e0fb"/>
    <path id="Path_112" data-name="Path 112" d="M13.668,12V22.667L6.127,30.208A10.667,10.667,0,0,1,13.668,12Z" transform="translate(-0.464 -4.667)" fill="#0092d6"/>
    <path id="Path_113" data-name="Path 113" d="M33.85,8.021,27.983,2.155A.551.551,0,0,0,27.6,2H14.271a1.6,1.6,0,0,0-1.6,1.6V6.827a11.186,11.186,0,0,0,0,22.347V32.4a1.6,1.6,0,0,0,1.6,1.6H32.4A1.6,1.6,0,0,0,34,32.4V8.4A.551.551,0,0,0,33.85,8.021Zm-5.712-4.2,4.048,4.048H28.671a.533.533,0,0,1-.533-.533ZM3.071,18a10.146,10.146,0,0,1,9.6-10.117v9.9L5.684,24.768A10.069,10.069,0,0,1,3.071,18Zm3.365,7.52,6.987-6.987h9.9A10.114,10.114,0,0,1,6.436,25.52Zm26.5,6.88a.533.533,0,0,1-.533.533H14.271a.533.533,0,0,1-.533-.533V29.173A11.207,11.207,0,0,0,24.4,18a.533.533,0,0,0-.533-.533H13.738V3.6a.533.533,0,0,1,.533-.533h12.8V7.333a1.6,1.6,0,0,0,1.6,1.6h4.267Z" fill="#193651"/>
    <path id="Path_114" data-name="Path 114" d="M26.533,7A.533.533,0,0,0,26,7.533V18.2a.533.533,0,0,0,.533.533H37.2a.533.533,0,0,0,.533-.533A11.212,11.212,0,0,0,26.533,7Zm.533,10.667V8.083a10.142,10.142,0,0,1,9.584,9.584Z" transform="translate(-11.196 -2.333)" fill="#193651"/>
    <path id="Path_115" data-name="Path 115" d="M44.8,40a4.8,4.8,0,1,0,4.8,4.8A4.8,4.8,0,0,0,44.8,40Zm0,8.533A3.733,3.733,0,1,1,48.533,44.8,3.733,3.733,0,0,1,44.8,48.533Z" transform="translate(-17.729 -17.733)" fill="#193651"/>
    <path id="Path_116" data-name="Path 116" d="M45.27,48.116l-1.223-1.223-.754.754,1.6,1.6a.533.533,0,0,0,.754,0l3.2-3.2-.754-.754Z" transform="translate(-19.266 -20.203)" fill="#193651"/>
    <path id="Path_117" data-name="Path 117" d="M50,19h4.267v1.067H50Z" transform="translate(-22.396 -7.933)"/>
    <path id="Path_118" data-name="Path 118" d="M50,25h4.267v1.067H50Z" transform="translate(-22.396 -10.733)"/>
    <path id="Path_119" data-name="Path 119" d="M50,31h4.267v1.067H50Z" transform="translate(-22.396 -13.533)"/>
  </g>
</svg>
