<svg xmlns="http://www.w3.org/2000/svg" width="27.885" height="33" viewBox="0 0 27.885 33">
  <g id="filing_blue" transform="translate(-39.679)">
    <path id="Path_91" data-name="Path 91" d="M154.79,78.381v18.76l-4.136,4.136H139.813v4.568h16.811l4.136-4.136V78.381Z" transform="translate(-93.68 -73.329)" fill="#d3e0fb"/>
    <path id="Path_92" data-name="Path 92" d="M68.132,30.834,64,34.97H47.185V7.506H68.132Z" transform="translate(-7.022 -7.022)" fill="#fff"/>
    <path id="Path_93" data-name="Path 93" d="M347.166,7.506V32.447l1.613-1.613V7.506Z" transform="translate(-287.668 -7.022)" fill="#c6c5ca"/>
    <path id="Path_94" data-name="Path 94" d="M154.79,78.381v18.76l-4.136,4.136H139.813v1.29h12.131l4.136-4.136V78.381Z" transform="translate(-93.68 -73.329)" fill="#b2b1b5"/>
    <g id="Group_45" data-name="Group 45" transform="translate(56.974 23.812)">
      <path id="Path_95" data-name="Path 95" d="M308.011,373.58v-4.136h4.136Z" transform="translate(-308.011 -369.444)" fill="#919191"/>
      <path id="Path_96" data-name="Path 96" d="M400.641,444.454v-4.136h4.136Z" transform="translate(-394.671 -435.75)" fill="#919191"/>
    </g>
    <path id="Path_104" data-name="Path 104" d="M6.624,0A6.624,6.624,0,1,1,0,6.624,6.624,6.624,0,0,1,6.624,0Z" transform="translate(43.681 4.09)" fill="#0092d6"/>
    <path id="Path_98" data-name="Path 98" d="M150.32,130.884a.832.832,0,0,1-.588-.244l-1.893-1.893a.832.832,0,1,1,1.177-1.177l1.3,1.3,3.2-3.2a.832.832,0,1,1,1.177,1.177l-3.785,3.785A.832.832,0,0,1,150.32,130.884Z" transform="translate(-100.961 -117.35)" fill="#fff"/>
    <path id="Path_99" data-name="Path 99" d="M123.379,301.9a.484.484,0,0,0-.484-.484H110.824a.484.484,0,0,0,0,.968H122.9A.484.484,0,0,0,123.379,301.9Z" transform="translate(-66.107 -281.993)" fill="#193651"/>
    <path id="Path_100" data-name="Path 100" d="M110.824,336.751a.484.484,0,0,0,0,.968h8.323a.484.484,0,0,0,0-.968Z" transform="translate(-66.107 -315.046)" fill="#193651"/>
    <path id="Path_101" data-name="Path 101" d="M67.08,9.912a.484.484,0,0,0,.484-.484V5.052a.484.484,0,0,0-.484-.484H61.594V.484A.484.484,0,0,0,61.11,0H40.163a.484.484,0,0,0-.484.484V17.1a.484.484,0,1,0,.968,0V.968h19.98v22.36H56.974a.484.484,0,0,0-.484.484v3.652H40.647V19.035a.484.484,0,1,0-.968,0v8.913a.484.484,0,0,0,.484.484h5.486v4.084a.484.484,0,0,0,.484.484H62.956l.036,0,.027,0,.019,0,.029-.007.017,0,.027-.01.017-.006.026-.012.017-.008.026-.016.014-.009.034-.025,0,0a.474.474,0,0,0,.036-.033l4.136-4.136a.483.483,0,0,0,.042-.049l.009-.012a.483.483,0,0,0,.034-.053v0a.478.478,0,0,0,.024-.055l.005-.015a.5.5,0,0,0,.017-.06h0a.49.49,0,0,0,.008-.061c0-.005,0-.011,0-.016s0-.011,0-.016V11.363a.484.484,0,1,0-.968,0V27.9H62.944a.484.484,0,0,0-.484.484v3.652H46.617v-3.6H56.986l.036,0,.027,0,.019,0,.029-.007.017,0,.027-.01.017-.006.026-.012.017-.008.026-.016.014-.009.034-.025,0,0c.013-.01.025-.021.036-.033l4.136-4.136h0a.485.485,0,0,0,.042-.049l.009-.012a.471.471,0,0,0,.034-.054v0a.475.475,0,0,0,.024-.055l.005-.015a.47.47,0,0,0,.017-.06h0a.488.488,0,0,0,.008-.062c0-.005,0-.011,0-.016s0-.011,0-.016h0V5.536h5V9.428A.484.484,0,0,0,67.08,9.912ZM63.428,28.864h2.485l-2.485,2.485ZM57.458,24.3h2.485L57.458,26.78Z" transform="translate(0)" fill="#193651"/>
    <path id="Path_102" data-name="Path 102" d="M143.308,124.345a1.307,1.307,0,0,0,.931-.385l3.785-3.785a1.316,1.316,0,1,0-1.861-1.861l-2.855,2.855-.962-.962a1.316,1.316,0,0,0-1.861,1.861l1.893,1.893A1.308,1.308,0,0,0,143.308,124.345Zm-2.139-3.455a.348.348,0,0,1,.492,0l1.3,1.3a.484.484,0,0,0,.684,0l3.2-3.2a.348.348,0,1,1,.492.493l-3.785,3.785a.346.346,0,0,1-.246.1.351.351,0,0,1-.246-.1l-1.893-1.893A.349.349,0,0,1,141.169,120.89Z" transform="translate(-93.949 -110.327)" fill="#193651"/>
    <path id="Path_103" data-name="Path 103" d="M96.44,58.62a.484.484,0,0,0-.679.086,7.04,7.04,0,0,0-1.49,4.355,7.106,7.106,0,1,0,2.995-5.8.484.484,0,0,0,.561.789,6.141,6.141,0,1,1-1.3,1.247A.484.484,0,0,0,96.44,58.62Z" transform="translate(-51.073 -52.346)" fill="#193651"/>
  </g>
</svg>
